<?xml version="1.0" encoding="UTF-8" standalone="no"?>
<!-- Created with Inkscape (http://www.inkscape.org/) -->

<svg
   width="100.39749mm"
   height="16.282211mm"
   viewBox="0 0 100.39749 16.282211"
   version="1.1"
   id="svg1"
   xmlns:inkscape="http://www.inkscape.org/namespaces/inkscape"
   xmlns:sodipodi="http://sodipodi.sourceforge.net/DTD/sodipodi-0.dtd"
   xmlns="http://www.w3.org/2000/svg"
   xmlns:svg="http://www.w3.org/2000/svg">
  <sodipodi:namedview
     id="namedview1"
     pagecolor="#ffffff"
     bordercolor="#000000"
     borderopacity="0.25"
     inkscape:showpageshadow="2"
     inkscape:pageopacity="0.0"
     inkscape:pagecheckerboard="0"
     inkscape:deskcolor="#d1d1d1"
     inkscape:document-units="mm" />
  <defs
     id="defs1" />
  <g
     inkscape:label="Capa 1"
     inkscape:groupmode="layer"
     id="layer1"
     transform="translate(-67.853738,-106.03901)">
    <path
       id="rect1"
       style="fill:#000000;stroke-width:0.264583"
       d="m 70.615845,106.03901 c -1.504424,0 -2.714115,1.18913 -2.762106,2.68149 l 0.761194,0.75344 c -0.450109,0.47632 -0.738513,1.10854 -0.761194,1.81384 l 1.210262,1.19786 v 3.38894 l -1.210262,1.19786 c 0.02269,0.70552 0.311345,1.33747 0.761711,1.81384 l -0.761711,0.75345 c 0.04799,1.49234 1.257682,2.68149 2.762106,2.68149 h 21.275704 l 3.341398,-1.74305 h 45.639073 l 3.3414,1.74305 h 21.2757 c 1.50459,0 2.71439,-1.18941 2.76211,-2.68201 l -0.7612,-0.75344 c 0.45023,-0.47645 0.73864,-1.10834 0.7612,-1.81385 l -1.20975,-1.19734 v -3.38894 l 1.20975,-1.19734 c -0.0225,-0.70539 -0.31059,-1.33795 -0.76068,-1.81436 l 0.76068,-0.75293 c -0.0477,-1.4926 -1.25752,-2.682 -2.76211,-2.682 h -21.2757 l -3.3414,1.74304 H 95.232947 l -3.341398,-1.74304 z" />
  </g>
</svg>
